<svg width="63" height="48" viewBox="0 0 63 48" fill="none" xmlns="http://www.w3.org/2000/svg">
<path fill-rule="evenodd" clip-rule="evenodd" d="M40.8333 13.3327H39.5V10.666H36.8333V13.3327H26.1667V10.666H23.5V13.3327H22.1667C20.6867 13.3327 19.5 14.5327 19.5 15.9993V34.666C19.5 36.1327 20.6867 37.3327 22.1667 37.3327H40.8333C42.3 37.3327 43.5 36.1327 43.5 34.666V15.9993C43.5 14.5327 42.3 13.3327 40.8333 13.3327ZM40.8333 34.666H22.1667V19.9993H40.8333V34.666ZM24.1667 25.3327C24.1667 23.4927 25.66 21.9993 27.5 21.9993C29.34 21.9993 30.8333 23.4927 30.8333 25.3327C30.8333 27.1727 29.34 28.666 27.5 28.666C25.66 28.666 24.1667 27.1727 24.1667 25.3327Z" fill="#5C59BB"/>
</svg>
