<svg width="120" height="42" viewBox="0 0 120 42" fill="none" xmlns="http://www.w3.org/2000/svg">
<path fill-rule="evenodd" clip-rule="evenodd" d="M21 42C32.598 42 42 32.598 42 21C42 9.40202 32.598 0 21 0C9.40202 0 0 9.40202 0 21C0 32.598 9.40202 42 21 42ZM32.1958 12.1469C32.5782 11.6572 32.4912 10.9502 32.0015 10.5679C31.5118 10.1855 30.8048 10.2725 30.4224 10.7622L20.478 23.4972L15.3107 18.249C14.8748 17.8062 14.1625 17.8007 13.7198 18.2366C13.2771 18.6725 13.2715 19.3848 13.7074 19.8275L19.7741 25.9893C20.0013 26.22 20.3169 26.3417 20.6402 26.3232C20.9635 26.3046 21.2631 26.1476 21.4625 25.8924L32.1958 12.1469ZM11.8159 14.5091C11.8159 13.4434 12.6798 12.5795 13.7455 12.5795H19.8545C20.4759 12.5795 20.9795 12.0759 20.9795 11.4545C20.9795 10.8332 20.4759 10.3295 19.8545 10.3295H13.7455C11.4372 10.3295 9.56591 12.2008 9.56591 14.5091V28.2545C9.56591 30.5628 11.4372 32.4341 13.7455 32.4341H25.9636C28.2719 32.4341 30.1432 30.5628 30.1432 28.2545V21.3818C30.1432 20.7605 29.6395 20.2568 29.0182 20.2568C28.3969 20.2568 27.8932 20.7605 27.8932 21.3818V28.2545C27.8932 29.3202 27.0293 30.1841 25.9636 30.1841H13.7455C12.6798 30.1841 11.8159 29.3202 11.8159 28.2545V14.5091Z" fill="#F6F7F8"/>
<path d="M48 26.788V25.9839C48.2862 25.9742 48.506 25.9303 48.6593 25.8523C48.8126 25.7646 48.92 25.6184 48.9813 25.4137C49.0426 25.1993 49.0733 24.9069 49.0733 24.5366V18.7032C49.0733 18.4596 49.0784 18.2256 49.0886 18.0015C49.1091 17.7773 49.1244 17.6019 49.1346 17.4751C48.9609 17.4849 48.7615 17.4946 48.5367 17.5044C48.3118 17.5044 48.1329 17.5093 48 17.519V16.5541C48.6746 16.5443 49.3493 16.5395 50.0239 16.5395C50.7088 16.5297 51.3886 16.5249 52.0632 16.5249C52.9934 16.5249 53.7805 16.6272 54.4245 16.8319C55.0787 17.0366 55.5693 17.3582 55.8964 17.7968C56.2338 18.2256 56.3973 18.7909 56.3871 19.4927C56.3769 19.8923 56.2798 20.2822 56.0958 20.6623C55.9118 21.0424 55.6204 21.3787 55.2218 21.6711C54.8231 21.9635 54.2916 22.1925 53.6272 22.3582C53.8214 22.4557 54.0054 22.597 54.1792 22.7822C54.3631 22.9674 54.5318 23.172 54.6851 23.3962L55.5131 24.6096C55.7176 24.9118 55.9067 25.1652 56.0804 25.3699C56.2542 25.5648 56.4331 25.7159 56.6171 25.8231C56.8011 25.9206 57.0209 25.9742 57.2764 25.9839V26.788H54.9458C54.7311 26.6223 54.5267 26.4176 54.3325 26.174C54.1485 25.9303 53.9543 25.6477 53.7498 25.326L52.6459 23.6447C52.513 23.4401 52.3852 23.25 52.2625 23.0746C52.1501 22.8894 52.0223 22.7334 51.8792 22.6067C51.7157 22.6165 51.5675 22.6213 51.4346 22.6213C51.3017 22.6213 51.1586 22.6165 51.0052 22.6067V24.595C51.0052 24.8679 51.0001 25.1165 50.9899 25.3406C50.9797 25.5648 50.9644 25.7403 50.9439 25.867C51.0564 25.8572 51.1892 25.8523 51.3426 25.8523C51.5061 25.8426 51.6646 25.8377 51.8179 25.8377C51.9712 25.828 52.0939 25.8231 52.1859 25.8231V26.788H48ZM51.8026 21.7295C52.375 21.7198 52.8452 21.6369 53.2132 21.481C53.5914 21.3251 53.8725 21.0814 54.0565 20.75C54.2507 20.4186 54.3478 19.9946 54.3478 19.4781C54.3478 19.0395 54.2763 18.6837 54.1332 18.4108C54.0003 18.1379 53.8163 17.9284 53.5812 17.7822C53.3563 17.636 53.1059 17.5385 52.8299 17.4898C52.5641 17.4313 52.2983 17.402 52.0325 17.402C51.7668 17.402 51.5572 17.441 51.4039 17.519C51.2506 17.597 51.1432 17.7383 51.0819 17.943C51.0308 18.1379 51.0052 18.4059 51.0052 18.7471V21.6857C51.1279 21.6954 51.2557 21.7052 51.3886 21.7149C51.5215 21.7247 51.6595 21.7295 51.8026 21.7295Z" fill="#F6F7F8"/>
<path d="M62.0491 27.0219C61.3234 27.0219 60.664 26.8709 60.0712 26.5687C59.4783 26.2568 59.0081 25.8231 58.6605 25.2675C58.3232 24.7022 58.1546 24.0443 58.1546 23.2939C58.1546 22.5044 58.3283 21.8026 58.6759 21.1886C59.0234 20.5746 59.4885 20.097 60.0712 19.7558C60.664 19.4147 61.3131 19.2442 62.0185 19.2442C62.7442 19.2442 63.3984 19.4001 63.9811 19.712C64.5637 20.0239 65.0237 20.4576 65.361 21.0132C65.7086 21.5687 65.8823 22.2266 65.8823 22.9868C65.8823 23.7861 65.7137 24.4927 65.3764 25.1067C65.0493 25.711 64.5944 26.1837 64.0117 26.5249C63.4393 26.8562 62.7851 27.0219 62.0491 27.0219ZM62.1258 26.1301C62.5858 26.1301 62.9384 25.9937 63.1838 25.7208C63.4291 25.4479 63.5977 25.1019 63.6897 24.6827C63.792 24.2539 63.8431 23.8153 63.8431 23.367C63.8431 22.9868 63.8073 22.6019 63.7357 22.212C63.6744 21.8221 63.5722 21.4712 63.4291 21.1594C63.286 20.8377 63.0969 20.5843 62.8618 20.3991C62.6267 20.2042 62.3404 20.1067 62.0031 20.1067C61.5534 20.1165 61.1956 20.2578 60.9298 20.5307C60.664 20.8036 60.4698 21.1496 60.3472 21.5687C60.2347 21.9878 60.1785 22.4313 60.1785 22.8991C60.1785 23.4254 60.2449 23.942 60.3778 24.4488C60.5107 24.9459 60.7203 25.3553 61.0065 25.6769C61.2927 25.9888 61.6658 26.1399 62.1258 26.1301Z" fill="#F6F7F8"/>
<path d="M70.6243 27.0219C70.0314 27.0219 69.5459 26.9147 69.1676 26.7003C68.7997 26.4859 68.5288 26.1447 68.355 25.6769C68.1812 25.1993 68.0943 24.5755 68.0943 23.8056V21.8173C68.0943 21.6516 68.0995 21.4664 68.1097 21.2617C68.1199 21.057 68.1301 20.8523 68.1404 20.6477C67.9768 20.6574 67.7928 20.6672 67.5884 20.6769C67.3839 20.6769 67.2153 20.6818 67.0824 20.6915V19.7558H67.343C67.9052 19.7558 68.3397 19.712 68.6463 19.6243C68.9632 19.5268 69.1779 19.4293 69.2903 19.3319H69.9956V23.8056C69.9956 24.5073 70.0927 25.0288 70.2869 25.3699C70.4914 25.711 70.8185 25.8816 71.2682 25.8816C71.5749 25.8718 71.8765 25.7841 72.1729 25.6184C72.4796 25.4527 72.7249 25.2578 72.9089 25.0336V21.8757C72.9089 21.6808 72.914 21.481 72.9242 21.2763C72.9344 21.0619 72.9498 20.8523 72.9702 20.6477C72.8067 20.6574 72.6175 20.6672 72.4029 20.6769C72.1984 20.6769 72.0298 20.6818 71.8969 20.6915V19.7558H72.2956C72.7658 19.7558 73.1542 19.7071 73.4609 19.6096C73.7777 19.5122 73.9873 19.4196 74.0895 19.3319H74.7948V24.5804C74.7948 24.7169 74.7897 24.9167 74.7795 25.1798C74.7693 25.443 74.7539 25.6818 74.7335 25.8962C74.9073 25.8767 75.0913 25.867 75.2855 25.867C75.4797 25.8572 75.6381 25.8475 75.7608 25.8377V26.788H73.0929C73.0724 26.6516 73.052 26.5151 73.0315 26.3787C73.0213 26.2422 73.0111 26.1106 73.0009 25.9839C72.684 26.2568 72.3262 26.5005 71.9276 26.7149C71.5391 26.9196 71.1047 27.0219 70.6243 27.0219Z" fill="#F6F7F8"/>
<path d="M80.1368 27.0219C79.8506 27.0219 79.5695 26.9878 79.2935 26.9196C79.0277 26.8514 78.7824 26.7247 78.5575 26.5395C78.3428 26.3543 78.1691 26.0814 78.0362 25.7208C77.9033 25.3504 77.8368 24.8631 77.8368 24.2588L77.8675 20.4868L76.7789 20.5015V19.4781C77.0855 19.4683 77.382 19.3709 77.6682 19.1857C77.9544 18.9907 78.2048 18.7373 78.4195 18.4254C78.6341 18.1135 78.7773 17.7822 78.8488 17.4313H79.7841L79.7688 19.4781H81.9307V20.4137L79.7688 20.4576L79.7534 24.2149C79.7534 24.5073 79.779 24.7802 79.8301 25.0336C79.8914 25.2773 79.9937 25.4722 80.1368 25.6184C80.2901 25.7646 80.4945 25.8377 80.7501 25.8377C80.9443 25.8377 81.1641 25.7792 81.4094 25.6623C81.6649 25.5453 81.9205 25.3114 82.176 24.9605L82.8047 25.5015C82.5491 25.8718 82.2834 26.1594 82.0074 26.364C81.7416 26.5687 81.481 26.7198 81.2254 26.8173C80.9801 26.9147 80.7603 26.9732 80.5661 26.9927C80.3719 27.0122 80.2288 27.0219 80.1368 27.0219Z" fill="#F6F7F8"/>
<path d="M83.7292 26.0132C84.0257 26.0132 84.2352 25.9547 84.3579 25.8377C84.4805 25.711 84.5572 25.5356 84.5879 25.3114C84.6185 25.0872 84.6339 24.8338 84.6339 24.5512V21.8173C84.6339 21.6516 84.639 21.4712 84.6492 21.2763C84.6594 21.0716 84.6748 20.8621 84.6952 20.6477C84.5214 20.6574 84.3323 20.6672 84.1279 20.6769C83.9234 20.6866 83.7548 20.6964 83.6219 20.7061V19.7558C84.0819 19.7558 84.4601 19.7364 84.7565 19.6974C85.0632 19.6486 85.2983 19.5902 85.4618 19.5219C85.6356 19.4537 85.7583 19.3904 85.8298 19.3319H86.5198V24.6974C86.5198 24.8533 86.5147 25.0434 86.5045 25.2675C86.5045 25.482 86.4891 25.6915 86.4585 25.8962C86.622 25.8767 86.7958 25.867 86.9798 25.867C87.174 25.8572 87.3324 25.8523 87.4551 25.8523V26.788H83.7292V26.0132ZM85.4925 18.0746C85.1961 18.0746 84.9456 17.9722 84.7412 17.7675C84.5368 17.5531 84.4345 17.2948 84.4345 16.9927C84.4345 16.6905 84.5368 16.4323 84.7412 16.2178C84.9558 16.0034 85.2063 15.8962 85.4925 15.8962C85.7889 15.8962 86.0343 16.0034 86.2285 16.2178C86.4329 16.4323 86.5351 16.6905 86.5351 16.9927C86.5351 17.2948 86.438 17.5531 86.2438 17.7675C86.0496 17.9722 85.7992 18.0746 85.4925 18.0746Z" fill="#F6F7F8"/>
<path d="M88.8891 26.788V26.0132C89.1855 26.0132 89.3951 25.9547 89.5177 25.8377C89.6404 25.711 89.7171 25.5356 89.7477 25.3114C89.7784 25.0872 89.7937 24.8338 89.7937 24.5512V21.8026C89.7937 21.6272 89.7988 21.442 89.8091 21.2471C89.8193 21.0521 89.8346 20.8523 89.8551 20.6477C89.6915 20.6574 89.5024 20.6672 89.2878 20.6769C89.0833 20.6866 88.9146 20.6964 88.7818 20.7061V19.7558C89.2418 19.7558 89.62 19.7364 89.9164 19.6974C90.2128 19.6486 90.4428 19.5902 90.6064 19.5219C90.7699 19.4537 90.8875 19.3904 90.959 19.3319H91.603C91.6235 19.4391 91.6337 19.5268 91.6337 19.595C91.6337 19.6633 91.6388 19.7364 91.649 19.8143C91.6592 19.8826 91.6746 19.9849 91.695 20.1213C91.8995 19.9557 92.1346 19.8095 92.4003 19.6827C92.6763 19.5463 92.9523 19.4391 93.2283 19.3611C93.5043 19.2831 93.7598 19.2442 93.9949 19.2442C94.9149 19.2442 95.5742 19.5024 95.9729 20.019C96.3715 20.5356 96.5709 21.3592 96.5709 22.4898V24.6974C96.5709 24.8533 96.5658 25.0434 96.5555 25.2675C96.5555 25.482 96.5402 25.6915 96.5095 25.8962C96.6833 25.8767 96.8622 25.867 97.0462 25.867C97.2302 25.8572 97.3835 25.8523 97.5062 25.8523V26.788H93.7803V26.0132C94.0767 26.0132 94.2863 25.9547 94.4089 25.8377C94.5418 25.711 94.6236 25.5356 94.6543 25.3114C94.6849 25.0872 94.7003 24.8338 94.7003 24.5512L94.6849 22.4751C94.6849 21.7734 94.5725 21.2519 94.3476 20.9108C94.1329 20.5599 93.7752 20.3845 93.2743 20.3845C92.9779 20.3943 92.6865 20.4625 92.4003 20.5892C92.1141 20.7159 91.8739 20.8767 91.6797 21.0716C91.6899 21.1886 91.695 21.3104 91.695 21.4371C91.695 21.5638 91.695 21.6905 91.695 21.8173L91.6797 24.6974C91.6797 24.8533 91.6746 25.0434 91.6644 25.2675C91.6644 25.482 91.649 25.6915 91.6184 25.8962C91.7819 25.8767 91.9557 25.867 92.1397 25.867C92.3339 25.8572 92.4923 25.8523 92.615 25.8523V26.788H88.8891Z" fill="#F6F7F8"/>
<path d="M102.535 27.0219C101.799 27.0219 101.145 26.866 100.572 26.5541C100 26.2325 99.5553 25.7841 99.2384 25.2091C98.9216 24.6243 98.7631 23.9371 98.7631 23.1477C98.7631 22.4654 98.9216 21.827 99.2384 21.2325C99.5553 20.6379 100 20.1603 100.572 19.7997C101.155 19.4293 101.83 19.2442 102.596 19.2442C103.026 19.2442 103.44 19.3026 103.838 19.4196C104.237 19.5366 104.595 19.7315 104.912 20.0044C105.228 20.2773 105.479 20.6379 105.663 21.0863C105.857 21.5346 105.949 22.0804 105.939 22.7237L100.787 22.8114C100.787 23.4157 100.859 23.9518 101.002 24.4196C101.155 24.8777 101.4 25.2432 101.738 25.5161C102.075 25.7792 102.52 25.9108 103.072 25.9108C103.317 25.9108 103.578 25.8718 103.854 25.7939C104.14 25.7061 104.421 25.5794 104.697 25.4137C104.973 25.2383 105.218 25.0239 105.433 24.7705L106.016 25.2822C105.678 25.75 105.305 26.1106 104.896 26.364C104.487 26.6174 104.079 26.788 103.67 26.8757C103.261 26.9732 102.883 27.0219 102.535 27.0219ZM100.864 21.9342H104.053C104.043 21.5443 103.981 21.2178 103.869 20.9547C103.767 20.6818 103.613 20.4771 103.409 20.3406C103.205 20.1944 102.954 20.1213 102.658 20.1213C102.157 20.1213 101.753 20.2822 101.446 20.6038C101.15 20.9157 100.956 21.3592 100.864 21.9342Z" fill="#F6F7F8"/>
<path d="M107.304 26.0132C107.601 26.0132 107.81 25.9547 107.933 25.8377C108.066 25.711 108.143 25.5356 108.163 25.3114C108.194 25.0872 108.209 24.8338 108.209 24.5512V18.2354C108.209 18.0697 108.214 17.8894 108.224 17.6944C108.235 17.4898 108.25 17.2802 108.27 17.0658C108.097 17.0755 107.908 17.0853 107.703 17.095C107.499 17.1048 107.325 17.1145 107.182 17.1243V16.174C107.652 16.174 108.035 16.1545 108.332 16.1155C108.638 16.0668 108.874 16.0083 109.037 15.9401C109.211 15.8718 109.334 15.8085 109.405 15.75H110.095L110.11 24.6974C110.11 24.8533 110.105 25.0434 110.095 25.2675C110.085 25.482 110.064 25.6915 110.034 25.8962C110.208 25.8767 110.386 25.867 110.57 25.867C110.754 25.8572 110.908 25.8523 111.03 25.8523V26.788H107.304V26.0132Z" fill="#F6F7F8"/>
<path d="M113.867 30.75C113.499 30.75 113.187 30.6525 112.932 30.4576C112.676 30.2627 112.548 29.9946 112.548 29.6535C112.548 29.4196 112.63 29.21 112.794 29.0249C112.957 28.8494 113.167 28.7568 113.422 28.7471C113.647 28.7373 113.826 28.8056 113.959 28.9518C114.102 29.1077 114.174 29.2929 114.174 29.5073C114.174 29.5365 114.174 29.5658 114.174 29.595C114.174 29.634 114.168 29.673 114.158 29.712C114.179 29.712 114.214 29.712 114.266 29.712C114.368 29.6925 114.475 29.6194 114.587 29.4927C114.71 29.3757 114.823 29.2149 114.925 29.0102C115.047 28.7861 115.175 28.5083 115.308 28.1769C115.441 27.8553 115.569 27.4946 115.691 27.095L113.284 22.3728C113.008 21.827 112.819 21.4079 112.717 21.1155C112.625 20.8231 112.558 20.5794 112.518 20.3845L111.812 20.4137V19.4781H115.415V20.2529H115.385C114.996 20.2822 114.782 20.4235 114.741 20.6769C114.7 20.9206 114.766 21.2227 114.94 21.5833L116.55 24.9898C116.693 24.6096 116.852 24.1418 117.025 23.5863C117.209 23.0307 117.414 22.4459 117.639 21.8319C117.69 21.6759 117.751 21.5054 117.823 21.3202C117.905 21.1252 117.986 20.9401 118.068 20.7646C118.15 20.5892 118.232 20.4576 118.313 20.3699L117.378 20.4137V19.4781H120V20.2529C119.663 20.3406 119.392 20.5404 119.187 20.8523C118.993 21.1545 118.809 21.5346 118.635 21.9927L116.719 27.1681C116.422 27.9674 116.146 28.6301 115.891 29.1564C115.635 29.6925 115.349 30.0921 115.032 30.3553C114.725 30.6184 114.337 30.75 113.867 30.75Z" fill="#F6F7F8"/>
</svg>
